<mxfile host="app.diagrams.net" modified="2023-09-25T02:57:41.227Z" agent="Mozilla/5.0 (Windows NT 10.0; Win64; x64) AppleWebKit/537.36 (KHTML, like Gecko) Chrome/116.0.0.0 Safari/537.36 OPR/102.0.0.0" version="21.7.5" etag="TGdAnUwgVXuQqlTE8XAO" type="github">
  <diagram name="Page-1" id="2HC8ZAJzMvKnmengxu0y">
    <mxGraphModel>
      <root>
        <mxCell id="0" />
        <mxCell id="1" parent="0" />
      </root>
    </mxGraphModel>
  </diagram>
</mxfile>
